<svg width="18" height="22" viewBox="0 0 18 22" fill="none" xmlns="http://www.w3.org/2000/svg">
<g id="Group">
<path id="Vector" d="M13.9206 0H4.07847C2.289 0 0.857422 1.46667 0.857422 3.3V18.7458C0.857422 20.5333 2.289 22 4.07847 22H13.9206C15.6653 22 17.1416 20.5333 17.1416 18.7V3.3C17.1416 1.46667 15.7101 0 13.9206 0ZM4.07847 1.69583H13.9206C14.7706 1.69583 15.4864 2.42917 15.4864 3.3V16.5H2.51268V3.3C2.51268 2.38333 3.22847 1.69583 4.07847 1.69583ZM13.9206 20.3042H4.07847C3.22847 20.3042 2.51268 19.5708 2.51268 18.7V18.15H15.4864V18.7C15.4864 19.6167 14.7706 20.3042 13.9206 20.3042Z" fill="#0E0E0E"/>
<path id="Vector_2" d="M7.56796 4.62949H10.3864C10.8337 4.62949 11.1916 4.26283 11.1916 3.80449C11.1916 3.34616 10.8337 2.97949 10.3864 2.97949H7.56796C7.12059 2.97949 6.7627 3.34616 6.7627 3.80449C6.7627 4.26283 7.12059 4.62949 7.56796 4.62949Z" fill="#0E0E0E"/>
</g>
</svg>
