<svg width="26" height="26" viewBox="0 0 26 26" fill="none" xmlns="http://www.w3.org/2000/svg">
<g clip-path="url(#clip0_1624_227)">
<path d="M20.9798 19.9209C20.3879 19.9209 19.8094 20.0959 19.3173 20.4237C18.8251 20.7515 18.4416 21.2174 18.2151 21.7626C17.9886 22.3077 17.9293 22.9075 18.0448 23.4862C18.1603 24.0649 18.4453 24.5965 18.8638 25.0137C19.2823 25.431 19.8155 25.7151 20.396 25.8302C20.9765 25.9453 21.5782 25.8862 22.125 25.6604C22.6718 25.4346 23.1392 25.0523 23.468 24.5617C23.7968 24.0711 23.9723 23.4943 23.9723 22.9042C23.9714 22.1133 23.6559 21.3549 23.0949 20.7957C22.5338 20.2364 21.7732 19.9218 20.9798 19.9209ZM20.9798 23.8987C20.7825 23.8987 20.5897 23.8403 20.4256 23.7311C20.2616 23.6218 20.1337 23.4665 20.0582 23.2848C19.9827 23.1031 19.963 22.9031 20.0015 22.7102C20.04 22.5173 20.135 22.3401 20.2745 22.201C20.414 22.062 20.5917 21.9673 20.7852 21.9289C20.9787 21.8905 21.1793 21.9102 21.3615 21.9855C21.5438 22.0607 21.6996 22.1882 21.8092 22.3517C21.9188 22.5153 21.9773 22.7075 21.9773 22.9042C21.977 23.1679 21.8718 23.4206 21.6848 23.607C21.4978 23.7934 21.2443 23.8983 20.9798 23.8987Z" fill="#F2F2F2"/>
<path d="M14.9947 19.921H7.01473C6.75017 19.921 6.49646 19.8163 6.30939 19.6298C6.12232 19.4433 6.01723 19.1903 6.01723 18.9266C6.01723 18.6628 6.12232 18.4099 6.30939 18.2234C6.49646 18.0369 6.75017 17.9321 7.01473 17.9321H22.9747C23.2108 17.9321 23.4392 17.8486 23.6194 17.6965C23.7995 17.5444 23.9197 17.3335 23.9586 17.1014L25.9536 5.16811C25.9774 5.02565 25.9698 4.87971 25.9314 4.74045C25.8929 4.6012 25.8245 4.47197 25.7309 4.36175C25.6372 4.25153 25.5206 4.16296 25.3892 4.10222C25.2577 4.04147 25.1146 4.01 24.9697 4.00999H9.00973C8.74517 4.00999 8.49146 4.11476 8.30439 4.30125C8.11732 4.48775 8.01223 4.74069 8.01223 5.00443C8.01223 5.26817 8.11732 5.52111 8.30439 5.7076C8.49146 5.8941 8.74517 5.99887 9.00973 5.99887H23.792L22.1296 15.9433H9.7008L3.95889 0.677519C3.88752 0.487984 3.75986 0.324662 3.59294 0.209361C3.42602 0.0940588 3.2278 0.0322639 3.02473 0.0322266H1.02973C0.765173 0.0322266 0.511455 0.136998 0.324388 0.323491C0.13732 0.509985 0.0322266 0.762925 0.0322266 1.02667C0.0322266 1.29041 0.13732 1.54335 0.324388 1.72984C0.511455 1.91634 0.765173 2.02111 1.02973 2.02111H2.33356L7.57043 15.9433H7.01473C6.2879 15.9381 5.5842 16.1977 5.03584 16.6733C4.48749 17.1489 4.13221 17.8078 4.03678 18.5262C3.94134 19.2445 4.11231 19.9729 4.51757 20.5744C4.92282 21.1759 5.53446 21.6092 6.23757 21.7929C6.05007 22.2421 5.97541 22.7301 6.02009 23.2146C6.06476 23.6991 6.22742 24.1653 6.49394 24.5729C6.76045 24.9805 7.12275 25.317 7.54937 25.5533C7.97599 25.7896 8.45402 25.9184 8.94194 25.9286C9.42986 25.9389 9.91291 25.8302 10.3491 25.612C10.7853 25.3938 11.1615 25.0728 11.445 24.6768C11.7284 24.2807 11.9106 23.8217 11.9757 23.3395C12.0408 22.8573 11.9868 22.3666 11.8184 21.9099H14.9947C15.2593 21.9099 15.513 21.8051 15.7001 21.6186C15.8871 21.4322 15.9922 21.1792 15.9922 20.9155C15.9922 20.6517 15.8871 20.3988 15.7001 20.2123C15.513 20.0258 15.2593 19.921 14.9947 19.921ZM10.0072 22.9044C10.0072 23.101 9.94872 23.2933 9.83912 23.4568C9.72951 23.6204 9.57372 23.7478 9.39145 23.8231C9.20918 23.8984 9.00862 23.9181 8.81512 23.8797C8.62163 23.8413 8.44389 23.7466 8.30439 23.6075C8.16489 23.4685 8.06988 23.2913 8.03139 23.0984C7.9929 22.9055 8.01266 22.7055 8.08816 22.5238C8.16366 22.3421 8.29151 22.1868 8.45555 22.0775C8.61958 21.9682 8.81244 21.9099 9.00973 21.9099C9.27418 21.9103 9.52769 22.0151 9.71469 22.2016C9.90168 22.388 10.0069 22.6407 10.0072 22.9044Z" fill="#F2F2F2"/>
</g>
<defs>
<clipPath id="clip0_1624_227">
<rect width="26" height="26" fill="white"/>
</clipPath>
</defs>
</svg>
