<svg width="53" height="52" viewBox="0 0 53 52" fill="none" xmlns="http://www.w3.org/2000/svg">
<path d="M17.7524 3.27845e-05C16.6225 0.00443812 15.5402 0.455225 14.7412 1.25416C13.9423 2.05309 13.4915 3.13542 13.4871 4.26527V12.8292C13.4843 13.5997 13.6894 14.3567 14.0809 15.0204C13.8895 14.9963 13.6967 14.9851 13.5038 14.987H4.93154C4.36641 14.9848 3.80644 15.0944 3.2839 15.3097C2.76137 15.5249 2.2866 15.8415 1.88699 16.2411C1.48738 16.6407 1.17083 17.1154 0.95558 17.638C0.740331 18.1605 0.630641 18.7205 0.632845 19.2856C0.635038 19.8479 0.747968 20.4043 0.965185 20.923C1.1824 21.4417 1.49966 21.9125 1.89883 22.3085C2.298 22.7046 2.77127 23.0182 3.29162 23.2313C3.81198 23.4445 4.36922 23.5531 4.93154 23.5509H13.5038C14.6337 23.5464 15.716 23.0957 16.515 22.2967C17.3139 21.4978 17.7647 20.4155 17.7691 19.2856C17.7734 18.5123 17.5682 17.7522 17.1753 17.0861C17.3663 17.1158 17.5591 17.1326 17.7524 17.1363C18.3182 17.1385 18.8789 17.0285 19.4019 16.8128C19.925 16.597 20.4002 16.2797 20.7999 15.8792C21.1996 15.4787 21.516 15.0029 21.7308 14.4794C21.9455 13.9559 22.0544 13.395 22.051 12.8292V4.26527C22.0489 3.70296 21.9359 3.14658 21.7187 2.6279C21.5015 2.10923 21.1842 1.63842 20.7851 1.24235C20.3859 0.846289 19.9126 0.532729 19.3923 0.319571C18.8719 0.106412 18.3147 -0.00216758 17.7524 3.27845e-05ZM34.8802 3.27845e-05C33.7504 0.00443812 32.668 0.455225 31.8691 1.25416C31.0702 2.05309 30.6194 3.13542 30.615 4.26527V12.8292C30.6117 13.3922 30.7194 13.9504 30.9321 14.4717C31.1448 14.993 31.4582 15.4673 31.8543 15.8673C32.2505 16.2674 32.7217 16.5854 33.2409 16.8031C33.7601 17.0209 34.3172 17.1341 34.8802 17.1363C35.0873 17.1373 35.2941 17.1232 35.4991 17.0943C35.1047 17.7571 34.8967 18.5142 34.8969 19.2855C34.8991 19.8478 35.0121 20.4042 35.2293 20.9228C35.4465 21.4415 35.7637 21.9123 36.1629 22.3084C36.5621 22.7044 37.0354 23.018 37.5557 23.2312C38.0761 23.4443 38.6333 23.5529 39.1956 23.5507H47.7679C48.8978 23.5463 49.9801 23.0955 50.779 22.2966C51.5779 21.4977 52.0287 20.4154 52.0332 19.2856C52.0354 18.7233 51.9268 18.166 51.7136 17.6457C51.5005 17.1253 51.1869 16.6521 50.7909 16.2529C50.3948 15.8537 49.924 15.5365 49.4053 15.3193C48.8866 15.102 48.3303 14.9891 47.7679 14.9869H39.1956C38.9914 14.9863 38.7874 15.0004 38.5851 15.0289C38.978 14.3628 39.1832 13.6027 39.1789 12.8294V4.26527C39.1767 3.70296 39.0638 3.14658 38.8466 2.6279C38.6294 2.10923 38.3121 1.63842 37.9129 1.24235C37.5138 0.846289 37.0405 0.532729 36.5201 0.319571C35.9998 0.106412 35.4425 -0.00216758 34.8802 3.27845e-05ZM4.93154 27.8495C4.36922 27.8473 3.81198 27.9559 3.29162 28.1691C2.77127 28.3822 2.298 28.6958 1.89883 29.0919C1.49966 29.4879 1.1824 29.9587 0.965185 30.4774C0.747968 30.9961 0.635038 31.5525 0.632845 32.1148C0.635038 32.6771 0.747968 33.2335 0.965185 33.7522C1.1824 34.2708 1.49966 34.7416 1.89883 35.1377C2.298 35.5338 2.77127 35.8473 3.29162 36.0605C3.81198 36.2737 4.36922 36.3822 4.93154 36.38H13.5038C13.6969 36.3791 13.8897 36.365 14.0809 36.3381C13.6894 37.0018 13.4843 37.7588 13.4871 38.5294V47.1017C13.4915 48.2315 13.9423 49.3139 14.7412 50.1128C15.5402 50.9117 16.6225 51.3625 17.7524 51.3669C18.3147 51.3691 18.8719 51.2605 19.3923 51.0474C19.9126 50.8342 20.3859 50.5207 20.7851 50.1246C21.1842 49.7285 21.5015 49.2577 21.7187 48.739C21.9359 48.2204 22.0489 47.664 22.051 47.1017V38.5294C22.0533 37.9642 21.9436 37.4043 21.7283 36.8817C21.5131 36.3592 21.1965 35.8844 20.7969 35.4848C20.3973 35.0852 19.9225 34.7686 19.4 34.5534C18.8775 34.3382 18.3175 34.2285 17.7524 34.2307C17.5563 34.234 17.3607 34.2508 17.1669 34.2809C17.557 33.6254 17.7649 32.8776 17.7691 32.1148C17.7647 30.9849 17.3139 29.9026 16.515 29.1037C15.716 28.3047 14.6337 27.854 13.5038 27.8496L4.93154 27.8495ZM39.1956 27.8495C38.6333 27.8473 38.0761 27.9559 37.5557 28.1691C37.0354 28.3822 36.5621 28.6958 36.1629 29.0919C35.7637 29.4879 35.4465 29.9587 35.2293 30.4774C35.0121 30.9961 34.8991 31.5525 34.8969 32.1148C34.9026 32.8747 35.1105 33.6194 35.4991 34.2725C35.2941 34.2436 35.0873 34.2295 34.8802 34.2305C34.3179 34.2327 33.7615 34.3457 33.2428 34.5629C32.7241 34.7801 32.2533 35.0974 31.8573 35.4966C31.4612 35.8958 31.1476 36.369 30.9345 36.8894C30.7213 37.4098 30.6128 37.967 30.615 38.5294V47.1017C30.6194 48.2315 31.0702 49.3139 31.8691 50.1128C32.668 50.9117 33.7504 51.3625 34.8802 51.3669C35.4425 51.3691 35.9998 51.2605 36.5201 51.0474C37.0405 50.8342 37.5138 50.5207 37.9129 50.1246C38.3121 49.7285 38.6294 49.2577 38.8466 48.739C39.0638 48.2204 39.1767 47.664 39.1789 47.1017V38.5294C39.1843 37.7596 38.982 37.0027 38.5935 36.3382C38.793 36.3663 38.9942 36.3804 39.1956 36.3802H47.7679C48.8978 36.3758 49.9802 35.925 50.7791 35.126C51.578 34.327 52.0288 33.2447 52.0332 32.1148C52.0288 30.9849 51.578 29.9026 50.779 29.1037C49.9801 28.3047 48.8978 27.854 47.7679 27.8495H39.1956Z" fill="#34E491"/>
<path d="M17.6327 8.49902C12.9696 8.49902 9.08008 12.3886 9.08008 17.0516V34.1252C9.08008 38.7882 12.9696 42.6778 17.6327 42.6778H34.7378C39.4008 42.6778 43.2904 38.7882 43.2904 34.1252V17.0516C43.2904 12.3886 39.4008 8.49902 34.7378 8.49902H17.6327Z" fill="#F6FBFE"/>
</svg>
