<svg width="17" height="198" viewBox="0 0 17 198" fill="none" xmlns="http://www.w3.org/2000/svg">
<path d="M8.66698 181.367C4.24871 181.367 0.666984 184.949 0.666984 189.367C0.666984 193.785 4.24871 197.367 8.66698 197.367C13.0853 197.367 16.667 193.785 16.667 189.367C16.667 184.949 13.0853 181.367 8.66698 181.367ZM7.16699 -6.55671e-08L7.16699 2.95886L10.167 2.95886L10.167 6.55671e-08L7.16699 -6.55671e-08ZM7.16699 8.87658L7.16699 14.7943L10.167 14.7943L10.167 8.87658L7.16699 8.87658ZM7.16699 20.712L7.16699 26.6297L10.167 26.6297L10.167 20.712L7.16699 20.712ZM7.16699 32.5474L7.16699 38.4652L10.167 38.4652L10.167 32.5474L7.16699 32.5474ZM7.16699 44.3829L7.16699 50.3006L10.167 50.3006L10.167 44.3829L7.16699 44.3829ZM7.16699 56.2183L7.16699 62.136L10.167 62.136L10.167 56.2183L7.16699 56.2183ZM7.16699 68.0537L7.16699 73.9715L10.167 73.9715L10.167 68.0537L7.16699 68.0537ZM7.16699 79.8892L7.16699 85.8069L10.167 85.8069L10.167 79.8892L7.16699 79.8892ZM7.16699 91.7246L7.16699 97.6423L10.167 97.6423L10.167 91.7246L7.16699 91.7246ZM7.16699 103.56L7.16699 109.478L10.167 109.478L10.167 103.56L7.16699 103.56ZM7.16699 115.395L7.16699 121.313L10.167 121.313L10.167 115.395L7.16699 115.395ZM7.16699 127.231L7.16699 133.149L10.167 133.149L10.167 127.231L7.16699 127.231ZM7.16699 139.066L7.16699 144.984L10.167 144.984L10.167 139.066L7.16699 139.066ZM7.16699 150.902L7.16699 156.82L10.167 156.82L10.167 150.902L7.16699 150.902ZM7.16699 162.737L7.16698 168.655L10.167 168.655L10.167 162.737L7.16699 162.737ZM7.16698 174.573L7.16698 180.49L10.167 180.49L10.167 174.573L7.16698 174.573ZM7.16698 186.408L7.16698 189.367L10.167 189.367L10.167 186.408L7.16698 186.408Z" fill="#34E491"/>
</svg>
