<svg width="16" height="198" viewBox="0 0 16 198" fill="none" xmlns="http://www.w3.org/2000/svg">
<path d="M8 0.367188C3.58172 0.367187 1.93129e-07 3.94891 0 8.36719C-1.93129e-07 12.7855 3.58172 16.3672 8 16.3672C12.4183 16.3672 16 12.7855 16 8.36719C16 3.94891 12.4183 0.367188 8 0.367188ZM6.5 8.36719L6.5 11.326L9.5 11.326L9.5 8.36719L6.5 8.36719ZM6.5 17.2438L6.5 23.1615L9.5 23.1615L9.5 17.2438L6.5 17.2438ZM6.5 29.0792L6.5 34.9969L9.5 34.9969L9.5 29.0792L6.5 29.0792ZM6.5 40.9146L6.5 46.8323L9.5 46.8323L9.5 40.9146L6.5 40.9146ZM6.5 52.7501L6.5 58.6678L9.5 58.6678L9.5 52.7501L6.5 52.7501ZM6.5 64.5855L6.5 70.5032L9.5 70.5032L9.5 64.5855L6.5 64.5855ZM6.5 76.4209L6.5 82.3386L9.5 82.3386L9.5 76.4209L6.5 76.4209ZM6.5 88.2564L6.5 94.1741L9.5 94.1741L9.5 88.2564L6.5 88.2564ZM6.5 100.092L6.5 106.01L9.5 106.01L9.5 100.092L6.5 100.092ZM6.5 111.927L6.5 117.845L9.5 117.845L9.5 111.927L6.5 111.927ZM6.49999 123.763L6.49999 129.68L9.49999 129.68L9.49999 123.763L6.49999 123.763ZM6.49999 135.598L6.49999 141.516L9.49999 141.516L9.49999 135.598L6.49999 135.598ZM6.49999 147.434L6.49999 153.351L9.49999 153.351L9.49999 147.434L6.49999 147.434ZM6.49999 159.269L6.49999 165.187L9.49999 165.187L9.49999 159.269L6.49999 159.269ZM6.49999 171.104L6.49999 177.022L9.49999 177.022L9.49999 171.104L6.49999 171.104ZM6.49999 182.94L6.49999 188.858L9.49999 188.858L9.49999 182.94L6.49999 182.94ZM6.49999 194.775L6.49999 197.734L9.49999 197.734L9.49999 194.775L6.49999 194.775Z" fill="#34E491"/>
</svg>
