<svg width="49" height="49" viewBox="0 0 49 49" fill="none" xmlns="http://www.w3.org/2000/svg">
<rect x="1.5" y="1.5" width="46" height="46" rx="23" fill="#202020"/>
<rect x="1.5" y="1.5" width="46" height="46" rx="23" stroke="#34E491" stroke-width="3"/>
<g clip-path="url(#clip0_1624_232)">
<path d="M29.4206 13.5H19.5785C17.789 13.5 16.3574 14.9667 16.3574 16.8V32.2458C16.3574 34.0333 17.789 35.5 19.5785 35.5H29.4206C31.1653 35.5 32.6416 34.0333 32.6416 32.2V16.8C32.6416 14.9667 31.2101 13.5 29.4206 13.5ZM19.5785 15.1958H29.4206C30.2706 15.1958 30.9864 15.9292 30.9864 16.8V30H18.0127V16.8C18.0127 15.8833 18.7285 15.1958 19.5785 15.1958ZM29.4206 33.8042H19.5785C18.7285 33.8042 18.0127 33.0708 18.0127 32.2V31.65H30.9864V32.2C30.9864 33.1167 30.2706 33.8042 29.4206 33.8042Z" fill="#F2F2F2"/>
<path d="M23.068 18.1295H25.8864C26.3337 18.1295 26.6916 17.7628 26.6916 17.3045C26.6916 16.8462 26.3337 16.4795 25.8864 16.4795H23.068C22.6206 16.4795 22.2627 16.8462 22.2627 17.3045C22.2627 17.7628 22.6206 18.1295 23.068 18.1295Z" fill="#F2F2F2"/>
</g>
<defs>
<clipPath id="clip0_1624_232">
<rect width="17" height="22" fill="white" transform="translate(16 13.5)"/>
</clipPath>
</defs>
</svg>
