<svg width="98" height="99" viewBox="0 0 98 99" fill="none" xmlns="http://www.w3.org/2000/svg">
<path d="M46.0212 64.9317C45.2118 64.9349 44.4366 65.2578 43.8643 65.8301C43.292 66.4024 42.9691 67.1777 42.9658 67.987V77.201C42.9658 80.5527 45.7248 83.3416 49.0765 83.3416H58.2964C61.6482 83.3416 64.4311 80.5527 64.4311 77.201V67.987C64.4278 67.1735 64.1016 66.3946 63.5241 65.8217C62.9467 65.2487 62.1653 64.9286 61.3518 64.9317H46.0212ZM73.6211 64.9317C72.8117 64.9349 72.0365 65.2578 71.4642 65.8301C70.8919 66.4024 70.569 67.1777 70.5657 67.987V77.201C70.5657 80.5527 73.3486 83.3416 76.7004 83.3416H82.841C86.1928 83.3416 88.9757 80.5527 88.9757 77.201V67.987C88.9724 67.1735 88.6462 66.3946 88.0687 65.8217C87.4912 65.2487 86.7098 64.9286 85.8964 64.9317H73.6211Z" fill="#FEC872"/>
<path d="M15.3166 15.9971C14.9143 15.9985 14.5163 16.0792 14.1452 16.2344C13.774 16.3897 13.4372 16.6166 13.1537 16.9021C12.8703 17.1876 12.6459 17.5262 12.4934 17.8984C12.3408 18.2707 12.2631 18.6693 12.2647 19.0716V79.9524C12.2631 80.3547 12.3408 80.7533 12.4934 81.1256C12.6459 81.4978 12.8703 81.8364 13.1537 82.1219C13.4372 82.4074 13.774 82.6343 14.1452 82.7896C14.5163 82.9449 14.9143 83.0255 15.3166 83.0269H30.825C34.072 83.0269 36.7707 80.3283 36.7707 77.0813V70.9548H89.0156C92.2625 70.9548 94.9386 68.2561 94.9386 65.0091V21.9427C94.9386 18.6958 92.2625 15.9971 89.0156 15.9971H15.3166Z" fill="#00C395"/>
<path d="M61.3405 25.0557C60.5311 25.0588 59.7558 25.3818 59.1835 25.9541C58.6112 26.5264 58.2883 27.3017 58.2851 28.111V34.2457C58.2831 34.7976 58.4301 35.3399 58.7105 35.8153C58.5734 35.798 58.4353 35.79 58.2971 35.7914H52.1565C51.7517 35.7898 51.3505 35.8683 50.9762 36.0225C50.6019 36.1767 50.2618 36.4035 49.9756 36.6897C49.6893 36.976 49.4625 37.3161 49.3084 37.6904C49.1542 38.0647 49.0756 38.4658 49.0772 38.8706C49.0787 39.2734 49.1596 39.672 49.3152 40.0435C49.4708 40.4151 49.6981 40.7523 49.984 41.036C50.27 41.3198 50.609 41.5444 50.9817 41.6971C51.3545 41.8498 51.7537 41.9275 52.1565 41.926H58.2971C59.1065 41.9228 59.8818 41.5999 60.4541 41.0276C61.0264 40.4553 61.3493 39.68 61.3525 38.8706C61.3556 38.3166 61.2086 37.7722 60.9271 37.295C61.0639 37.3163 61.202 37.3283 61.3405 37.331C61.7458 37.3326 62.1474 37.2538 62.5221 37.0992C62.8968 36.9447 63.2372 36.7174 63.5235 36.4305C63.8099 36.1436 64.0365 35.8028 64.1903 35.4278C64.3442 35.0528 64.4222 34.651 64.4198 34.2457V28.111C64.4182 27.7082 64.3373 27.3097 64.1817 26.9381C64.0261 26.5666 63.7989 26.2293 63.5129 25.9456C63.227 25.6619 62.888 25.4373 62.5152 25.2846C62.1425 25.1319 61.7433 25.0541 61.3405 25.0557ZM73.6098 25.0557C72.8004 25.0588 72.0251 25.3818 71.4528 25.9541C70.8805 26.5264 70.5576 27.3017 70.5544 28.111V34.2457C70.5521 34.649 70.6293 35.0488 70.7816 35.4222C70.9339 35.7957 71.1584 36.1354 71.4422 36.422C71.726 36.7086 72.0635 36.9364 72.4355 37.0923C72.8074 37.2483 73.2064 37.3294 73.6098 37.331C73.7581 37.3317 73.9062 37.3216 74.0531 37.3009C73.7706 37.7757 73.6215 38.318 73.6217 38.8705C73.6233 39.2733 73.7042 39.6719 73.8598 40.0434C74.0154 40.415 74.2427 40.7522 74.5286 41.0359C74.8145 41.3197 75.1536 41.5443 75.5263 41.697C75.8991 41.8497 76.2982 41.9274 76.701 41.9259H82.8417C83.651 41.9227 84.4263 41.5998 84.9986 41.0275C85.5709 40.4552 85.8938 39.68 85.897 38.8706C85.8986 38.4678 85.8208 38.0686 85.6681 37.6959C85.5154 37.3231 85.2908 36.9841 85.0071 36.6982C84.7234 36.4122 84.3861 36.185 84.0146 36.0294C83.643 35.8738 83.2445 35.7929 82.8417 35.7913H76.701C76.5547 35.7909 76.4086 35.8009 76.2637 35.8214C76.5452 35.3442 76.6922 34.7998 76.6891 34.2458V28.111C76.6875 27.7082 76.6066 27.3097 76.451 26.9381C76.2954 26.5666 76.0681 26.2293 75.7822 25.9456C75.4963 25.6619 75.1572 25.4373 74.7845 25.2846C74.4117 25.1319 74.0126 25.0541 73.6098 25.0557ZM52.1565 45.0053C51.7537 45.0037 51.3545 45.0815 50.9817 45.2342C50.609 45.3869 50.27 45.6115 49.984 45.8952C49.6981 46.1789 49.4708 46.5162 49.3152 46.8877C49.1596 47.2592 49.0787 47.6578 49.0772 48.0606C49.0787 48.4634 49.1596 48.862 49.3152 49.2335C49.4708 49.6051 49.6981 49.9423 49.984 50.226C50.27 50.5097 50.609 50.7344 50.9817 50.8871C51.3545 51.0397 51.7537 51.1175 52.1565 51.1159H58.2971C58.4354 51.1153 58.5735 51.1052 58.7105 51.0859C58.43 51.5613 58.2831 52.1036 58.2851 52.6556V58.7962C58.2883 59.6056 58.6112 60.3809 59.1835 60.9532C59.7558 61.5255 60.5311 61.8484 61.3405 61.8516C61.7433 61.8532 62.1425 61.7754 62.5152 61.6227C62.888 61.47 63.227 61.2454 63.5129 60.9617C63.7989 60.6779 64.0261 60.3407 64.1817 59.9691C64.3373 59.5976 64.4182 59.199 64.4198 58.7962V52.6556C64.4214 52.2508 64.3428 51.8496 64.1886 51.4753C64.0344 51.101 63.8077 50.7609 63.5214 50.4747C63.2351 50.1884 62.8951 49.9617 62.5207 49.8075C62.1464 49.6533 61.7453 49.5747 61.3405 49.5763C61.2 49.5787 61.0599 49.5907 60.9211 49.6122C61.2005 49.1427 61.3494 48.607 61.3525 48.0606C61.3493 47.2513 61.0264 46.476 60.4541 45.9036C59.8818 45.3313 59.1065 45.0084 58.2971 45.0053L52.1565 45.0053ZM76.701 45.0053C76.2982 45.0037 75.8991 45.0815 75.5263 45.2342C75.1536 45.3869 74.8145 45.6115 74.5286 45.8952C74.2427 46.1789 74.0154 46.5162 73.8598 46.8877C73.7042 47.2592 73.6233 47.6578 73.6217 48.0606C73.6258 48.605 73.7747 49.1384 74.0531 49.6063C73.9062 49.5855 73.7581 49.5755 73.6098 49.5762C73.2069 49.5778 72.8084 49.6587 72.4368 49.8143C72.0653 49.9699 71.728 50.1971 71.4443 50.4831C71.1606 50.769 70.936 51.1081 70.7833 51.4808C70.6306 51.8536 70.5528 52.2528 70.5544 52.6556V58.7962C70.5576 59.6056 70.8805 60.3809 71.4528 60.9532C72.0251 61.5255 72.8004 61.8484 73.6098 61.8516C74.0126 61.8532 74.4117 61.7754 74.7845 61.6227C75.1572 61.47 75.4963 61.2454 75.7822 60.9617C76.0681 60.6779 76.2954 60.3407 76.451 59.9691C76.6066 59.5976 76.6875 59.199 76.6891 58.7962V52.6556C76.6929 52.1042 76.548 51.562 76.2697 51.086C76.4126 51.1061 76.5567 51.1162 76.701 51.1161H82.8417C83.6511 51.1129 84.4264 50.79 84.9987 50.2176C85.571 49.6453 85.8939 48.87 85.897 48.0606C85.8939 47.2513 85.571 46.4759 84.9986 45.9036C84.4263 45.3313 83.651 45.0084 82.8417 45.0053H76.701Z" fill="#143441"/>
<path d="M15.3166 25.0176C14.5081 25.0204 13.7334 25.3429 13.1617 25.9146C12.59 26.4864 12.2675 27.261 12.2646 28.0695V46.449C12.2675 47.2576 12.59 48.0322 13.1617 48.6039C13.7334 49.1757 14.5081 49.4981 15.3166 49.501H24.5177C27.8641 49.501 30.6442 46.7436 30.6442 43.3971V31.1441C30.6442 27.7976 27.8641 25.0176 24.5177 25.0176H15.3166Z" fill="#143441"/>
<path d="M39.8865 25.0557C39.0771 25.0588 38.3018 25.3817 37.7295 25.954C37.1572 26.5263 36.8343 27.3016 36.8312 28.111C36.8296 28.5138 36.9074 28.913 37.06 29.2857C37.2127 29.6585 37.4374 29.9975 37.7211 30.2834C38.0048 30.5694 38.342 30.7966 38.7136 30.9522C39.0851 31.1078 39.4837 31.1887 39.8865 31.1903H46.0211C46.4239 31.1887 46.8225 31.1078 47.194 30.9522C47.5656 30.7966 47.9028 30.5694 48.1866 30.2834C48.4703 29.9975 48.6949 29.6585 48.8476 29.2857C49.0003 28.913 49.0781 28.5138 49.0765 28.111C49.0733 27.3016 48.7504 26.5263 48.1781 25.954C47.6058 25.3817 46.8305 25.0588 46.0211 25.0557H39.8865ZM39.8865 34.2457C39.4832 34.2472 39.0841 34.3283 38.7122 34.4843C38.3403 34.6403 38.0027 34.8681 37.7189 35.1546C37.4351 35.4412 37.2107 35.7809 37.0583 36.1544C36.906 36.5278 36.8288 36.9276 36.8312 37.3309C36.8343 38.1403 37.1572 38.9156 37.7295 39.4879C38.3018 40.0602 39.0771 40.3831 39.8865 40.3863H42.9658C43.7752 40.3831 44.5505 40.0602 45.1228 39.4879C45.6951 38.9156 46.018 38.1403 46.0211 37.3309C46.0235 36.9276 45.9463 36.5278 45.794 36.1544C45.6416 35.7809 45.4171 35.4412 45.1333 35.1546C44.8496 34.8681 44.512 34.6403 44.1401 34.4843C43.7682 34.3283 43.3691 34.2472 42.9658 34.2457H39.8865ZM39.8865 43.4656C39.0771 43.4687 38.3018 43.7917 37.7295 44.364C37.1572 44.9363 36.8343 45.7116 36.8312 46.5209C36.8343 47.3303 37.1572 48.1056 37.7295 48.6779C38.3018 49.2502 39.0771 49.5731 39.8865 49.5763H42.9658C43.7752 49.5731 44.5505 49.2502 45.1228 48.6779C45.6951 48.1056 46.018 47.3303 46.0211 46.5209C46.018 45.7116 45.6951 44.9363 45.1228 44.364C44.5505 43.7917 43.7752 43.4687 42.9658 43.4656H39.8865ZM24.5559 52.6556C24.1531 52.654 23.7539 52.7318 23.3811 52.8845C23.0084 53.0372 22.6694 53.2618 22.3834 53.5455C22.0975 53.8292 21.8702 54.1665 21.7146 54.538C21.559 54.9096 21.4781 55.3081 21.4766 55.7109V58.7962C21.4781 59.199 21.559 59.5976 21.7146 59.9691C21.8702 60.3407 22.0975 60.6779 22.3834 60.9616C22.6694 61.2454 23.0084 61.47 23.3811 61.6227C23.7539 61.7754 24.1531 61.8531 24.5559 61.8516C25.3652 61.8484 26.1405 61.5255 26.7128 60.9532C27.2851 60.3809 27.6081 59.6056 27.6112 58.7962V55.7109C27.6081 54.9016 27.2851 54.1263 26.7128 53.554C26.1405 52.9816 25.3652 52.6587 24.5559 52.6556ZM33.7459 52.6556C32.9365 52.6587 32.1612 52.9816 31.5889 53.554C31.0166 54.1263 30.6937 54.9016 30.6905 55.7109V58.7962C30.6937 59.6056 31.0166 60.3809 31.5889 60.9532C32.1612 61.5255 32.9365 61.8484 33.7459 61.8516C34.1492 61.8539 34.549 61.7767 34.9224 61.6244C35.2959 61.4721 35.6356 61.2476 35.9222 60.9638C36.2087 60.68 36.4365 60.3424 36.5925 59.9705C36.7485 59.5986 36.8296 59.1995 36.8312 58.7962V55.7109C36.8296 55.3076 36.7485 54.9086 36.5925 54.5366C36.4365 54.1647 36.2087 53.8272 35.9222 53.5434C35.6356 53.2596 35.2959 53.0351 34.9224 52.8827C34.549 52.7304 34.1492 52.6532 33.7459 52.6556ZM42.9658 52.6556C42.563 52.654 42.1638 52.7318 41.7911 52.8845C41.4183 53.0372 41.0793 53.2618 40.7934 53.5455C40.5074 53.8292 40.2802 54.1665 40.1246 54.538C39.969 54.9096 39.8881 55.3081 39.8865 55.7109V58.7962C39.8881 59.199 39.969 59.5976 40.1246 59.9691C40.2802 60.3407 40.5074 60.6779 40.7934 60.9616C41.0793 61.2454 41.4183 61.47 41.7911 61.6227C42.1638 61.7754 42.563 61.8531 42.9658 61.8516C43.7752 61.8484 44.5505 61.5255 45.1228 60.9532C45.6951 60.3809 46.018 59.6056 46.0211 58.7962V55.7109C46.018 54.9016 45.6951 54.1263 45.1228 53.554C44.5505 52.9816 43.7752 52.6587 42.9658 52.6556Z" fill="#F2994A"/>
<path d="M9.18965 43.3975C8.38107 43.4003 7.60641 43.7227 7.03466 44.2945C6.46291 44.8662 6.14048 45.6409 6.1377 46.4494C6.14048 47.258 6.46291 48.0327 7.03466 48.6044C7.60641 49.1762 8.38107 49.4986 9.18965 49.5014H15.3162C15.7185 49.503 16.1171 49.4253 16.4894 49.2727C16.8617 49.1202 17.2002 48.8958 17.4857 48.6124C17.7713 48.329 17.9981 47.9921 18.1534 47.6209C18.3087 47.2498 18.3893 46.8517 18.3907 46.4494C18.3893 46.0471 18.3087 45.649 18.1534 45.2779C17.9981 44.9068 17.7713 44.5699 17.4857 44.2865C17.2002 44.003 16.8617 43.7787 16.4894 43.6261C16.1171 43.4736 15.7185 43.3959 15.3162 43.3975H9.18965Z" fill="#143441"/>
<path d="M6.13806 3.5635C5.73385 3.56191 5.33333 3.64034 4.95959 3.79429C4.58585 3.94823 4.24628 4.17464 3.96046 4.46046C3.67464 4.74628 3.44823 5.08585 3.29429 5.45959C3.14034 5.83333 3.06191 6.23385 3.0635 6.63806C3.06488 7.04036 3.14552 7.43845 3.30079 7.80957C3.45607 8.1807 3.68295 8.5176 3.96847 8.80102C4.25399 9.08444 4.59256 9.30883 4.96482 9.46137C5.33709 9.6139 5.73576 9.69159 6.13806 9.69001H12.2646V92.3865C12.2673 93.1951 12.5898 93.9698 13.1615 94.5415C13.7333 95.1133 14.5079 95.4357 15.3165 95.4385C15.7188 95.4401 16.1175 95.3624 16.4898 95.2098C16.862 95.0573 17.2006 94.8329 17.4861 94.5495C17.7716 94.2661 17.9985 93.9292 18.1538 93.5581C18.3091 93.1869 18.3897 92.7888 18.3911 92.3865V6.63806C18.3926 6.23387 18.3142 5.83336 18.1602 5.45964C18.0062 5.08591 17.7798 4.74636 17.494 4.46055C17.2082 4.17474 16.8687 3.94833 16.4949 3.79437C16.1212 3.64041 15.7207 3.56195 15.3165 3.5635H6.13806Z" fill="#434C54"/>
<path d="M61.2544 31.1445C57.9142 31.1445 55.1279 33.9308 55.1279 37.271V49.5014C55.1279 52.8417 57.9142 55.628 61.2544 55.628H73.5075C76.8477 55.628 79.634 52.8417 79.634 49.5014V37.271C79.634 33.9308 76.8477 31.1445 73.5075 31.1445H61.2544Z" fill="#F6FBFE"/>
</svg>
