<svg width="108" height="109" viewBox="0 0 108 109" fill="none" xmlns="http://www.w3.org/2000/svg">
<g clip-path="url(#clip0_1638_299)">
<path d="M94.2145 19.5596V88.7809C94.2145 91.8755 91.7056 94.3844 88.6109 94.3844H19.3897C16.295 94.3844 13.7861 91.8755 13.7861 88.7809V19.5596C13.7861 16.4649 16.295 13.9561 19.3897 13.9561H88.6109C91.7056 13.9561 94.2145 16.4645 94.2145 19.5596Z" fill="white"/>
<path d="M89.1561 24.2433V84.7573C89.1561 87.4628 86.9628 89.6559 84.2575 89.6559H23.7433C21.0378 89.6559 18.8447 87.4626 18.8447 84.7573V24.2433C18.8447 21.5378 21.0381 19.3447 23.7433 19.3447H84.2573C86.9628 19.3447 89.1561 21.5381 89.1561 24.2433Z" fill="#00C395"/>
<path d="M79.0507 32.6099V75.7317C79.0507 77.6584 77.4887 79.2225 75.5599 79.2225H32.44C30.5112 79.2225 28.9492 77.6582 28.9492 75.7317V32.6099C28.9492 30.6811 30.5112 29.1191 32.44 29.1191H75.5597C77.4885 29.1191 79.0507 30.6811 79.0507 32.6099Z" fill="white"/>
<path d="M79.0511 32.6099V75.7317C79.0511 77.6584 77.4891 79.2225 75.5603 79.2225H37.8453C35.9165 79.2225 34.3545 77.6582 34.3545 75.7317V32.6099C34.3545 30.6811 35.9165 29.1191 37.8453 29.1191H75.5601C77.4889 29.1191 79.0511 30.6811 79.0511 32.6099Z" fill="white"/>
<path d="M51.5285 38.6782C51.5285 40.7448 50.2588 42.5166 48.4572 43.2543C47.8786 43.4916 47.2471 43.623 46.5835 43.623C43.8514 43.623 41.6387 41.4081 41.6387 38.6782C41.6387 35.9482 43.8514 33.7334 46.5835 33.7334C47.2469 33.7334 47.8784 33.8648 48.4572 34.1021C50.2588 34.8398 51.5285 36.6116 51.5285 38.6782Z" fill="#F2994A"/>
<path d="M45.3752 65.2129C45.3752 67.0951 44.2496 68.7142 42.6325 69.4329C42.0603 69.6873 41.4266 69.8293 40.7588 69.8293C38.2111 69.8293 36.1445 67.7627 36.1445 65.2129C36.1445 62.6652 38.2111 60.5986 40.7588 60.5986C41.4264 60.5986 42.0603 60.7406 42.6325 60.995C44.2498 61.7136 45.3752 63.333 45.3752 65.2129Z" fill="#F2994A"/>
<path d="M72.8447 54.6662C72.8447 57.2881 71.1426 59.5135 68.7837 60.2957C68.1967 60.4927 67.567 60.5988 66.9123 60.5988C63.6356 60.5988 60.9775 57.9431 60.9775 54.6662C60.9775 51.3893 63.6353 48.7314 66.9123 48.7314C67.5672 48.7314 68.1967 48.8373 68.7837 49.0346C71.1426 49.8167 72.8447 52.0442 72.8447 54.6662Z" fill="#F2994A"/>
<path d="M51.5294 38.6776C51.5294 40.7442 50.2597 42.5161 48.4581 43.2537C46.6544 42.5182 45.3848 40.7442 45.3848 38.6776C45.3848 36.6111 46.6544 34.8371 48.4581 34.1016C50.2597 34.8392 51.5294 36.6111 51.5294 38.6776Z" fill="#FEC872"/>
<path d="M45.3758 65.212C45.3758 67.0942 44.2503 68.7134 42.6332 69.4321C41.0181 68.7136 39.8906 67.0942 39.8906 65.212C39.8906 63.3299 41.0183 61.7128 42.6332 60.9941C44.2505 61.7128 45.3758 63.3322 45.3758 65.212Z" fill="#FEC872"/>
<path d="M72.8446 54.6648C72.8446 57.2868 71.1425 59.5122 68.7836 60.2943C66.4245 59.5122 64.7227 57.2868 64.7227 54.6648C64.7227 52.0429 66.4247 49.8154 68.7836 49.0332C71.1425 49.8154 72.8446 52.0429 72.8446 54.6648Z" fill="#FEC872"/>
<path d="M13.7862 86.1891C14.6637 86.1891 15.3759 85.477 15.3759 84.5995V19.5599C15.3759 17.3788 17.1477 15.5795 19.3288 15.5455C20.2063 15.5329 20.9079 14.8121 20.8932 13.9325C20.8805 13.0634 20.1726 12.3682 19.3056 12.3682H19.2801C15.3738 12.4253 12.1966 15.6514 12.1966 19.5597V29.8365H1.58963C0.711703 29.8365 0 30.5482 0 31.4262C0 32.3041 0.711703 33.0158 1.58963 33.0158H12.1966V41.3735H1.58963C0.711703 41.3735 0 42.0852 0 42.9632C0 43.8411 0.711703 44.5528 1.58963 44.5528H12.1966V52.9104H1.58963C0.711703 52.9106 0 53.6223 0 54.5002C0 55.3781 0.711703 56.0898 1.58963 56.0898H12.1966V64.4474H1.58963C0.711703 64.4474 0 65.1591 0 66.037C0 66.9149 0.711703 67.6266 1.58963 67.6266H12.1966V75.9844H1.58963C0.711703 75.9844 0 76.6961 0 77.574C0 78.4519 0.711703 79.1636 1.58963 79.1636H12.1966V84.5995C12.1966 85.477 12.9087 86.1891 13.7862 86.1891Z" fill="#434C54"/>
<path d="M86.5195 92.7954H19.3899C17.7516 92.7954 16.2934 91.8162 15.6724 90.3006C15.3395 89.4868 14.4133 89.0989 13.5995 89.4316C12.7857 89.7644 12.3978 90.6928 12.7304 91.5045C13.841 94.2197 16.4545 95.9744 19.3899 95.9744H29.3363V106.91C29.3363 107.788 30.048 108.499 30.9259 108.499C31.8038 108.499 32.5155 107.788 32.5155 106.91V95.9744H40.8733V106.91C40.8733 107.788 41.585 108.499 42.4629 108.499C43.3408 108.499 44.0525 107.788 44.0525 106.91V95.9744H52.4101V106.91C52.4101 107.788 53.1218 108.499 53.9997 108.499C54.8776 108.499 55.5893 107.788 55.5893 106.91V95.9744H63.9469V106.91C63.9469 107.788 64.6586 108.499 65.5365 108.499C66.4144 108.499 67.1261 107.788 67.1261 106.91V95.9744H75.4839V106.91C75.4839 107.788 76.1956 108.499 77.0735 108.499C77.9514 108.499 78.6631 107.788 78.6631 106.91V95.9744H86.5195C87.397 95.9744 88.1091 95.2623 88.1091 94.3848C88.1091 93.5056 87.397 92.7954 86.5195 92.7954Z" fill="#434C54"/>
<path d="M75.5594 80.8119C78.3615 80.8119 80.6399 78.5334 80.6399 75.7315V32.6097C80.6399 29.8076 78.3613 27.5293 75.5594 27.5293H32.4398C29.6377 27.5293 27.3594 29.8078 27.3594 32.6097V75.7315C27.3594 78.5336 29.6379 80.8119 32.4398 80.8119H75.5594ZM39.7184 67.8489C38.7964 67.3317 38.1733 66.342 38.1733 65.2122C38.1733 63.5441 39.5319 62.1876 41.2 62.1876C42.8681 62.1876 44.2247 63.5441 44.2247 65.2122C44.2245 67.5237 41.7244 68.9829 39.7184 67.8489ZM77.4608 75.7315C77.4608 76.7786 76.6088 77.6327 75.5596 77.6327H55.7543V70.7582H77.4608V75.7315ZM68.501 30.7085H75.5594C76.6086 30.7085 77.4606 31.5605 77.4606 32.6097V67.5789H55.7543V56.2552H59.5571C60.2884 59.6422 63.3086 62.1878 66.9118 62.1878C71.0597 62.1878 74.4341 58.8134 74.4341 54.6656C74.4341 51.0623 71.8885 48.0421 68.5015 47.3108C68.5015 47.3108 68.5013 47.3108 68.501 47.3108V30.7085ZM71.2548 54.6656C71.2548 57.0605 69.307 59.0086 66.9118 59.0086C64.4996 59.0086 62.5667 57.0416 62.5667 54.6656C62.5667 52.2851 64.5048 50.3205 66.9118 50.3205C69.307 50.3205 71.2548 52.2704 71.2548 54.6656ZM30.5386 32.6097C30.5386 31.5605 31.3906 30.7085 32.4398 30.7085H65.3218V47.3108C62.448 47.9318 60.1779 50.2019 59.5571 53.0759H47.8425V44.9243C50.8458 44.3372 53.118 41.6855 53.118 38.5126C53.118 34.9115 50.1866 31.9803 46.5836 31.9803C43.4107 31.9803 40.7594 34.2523 40.1719 37.2535H30.5386V32.6097ZM46.5836 41.8678C44.7453 41.8678 43.2284 40.3726 43.2284 38.5126C43.2284 36.6644 44.7332 35.1595 46.5836 35.1595C48.4339 35.1595 49.9388 36.6644 49.9388 38.5126C49.9388 40.379 48.4192 41.8678 46.5836 41.8678ZM30.5386 75.7315V40.4328H40.3371C40.3506 40.4549 41.2049 43.6962 44.663 44.7589V54.6656C44.663 55.5431 45.3751 56.2552 46.2526 56.2552H52.5748V77.6327H41.9098V71.3758C44.998 71.024 47.4037 68.3936 47.4037 65.2122C47.4037 61.7912 44.6208 59.0083 41.1998 59.0083C37.7767 59.0083 34.9938 61.7912 34.9938 65.2122C34.9938 67.7557 36.5326 69.9495 38.7306 70.9052V77.6327H32.4398C31.3908 77.6327 30.5386 76.7786 30.5386 75.7315Z" fill="#00A97D"/>
<path d="M106.41 44.5528C107.288 44.5528 108 43.8411 108 42.9632C108 42.0853 107.288 41.3736 106.41 41.3736H95.8031V33.0158H106.41C107.288 33.0158 108 32.3041 108 31.4262C108 30.5483 107.288 29.8366 106.41 29.8366H95.8031V19.5597C95.8031 15.5941 92.5772 12.3661 88.6095 12.3661H78.6632V2.08962C78.6632 1.2117 77.9515 0.5 77.0735 0.5C76.1956 0.5 75.4839 1.2117 75.4839 2.08962V12.3659H67.1261V2.08962C67.1261 1.2117 66.4144 0.5 65.5365 0.5C64.6586 0.5 63.9469 1.2117 63.9469 2.08962V12.3659H55.5893V2.08962C55.5893 1.2117 54.8776 0.5 53.9997 0.5C53.1218 0.5 52.4101 1.2117 52.4101 2.08962V12.3659H44.0525V2.08962C44.0525 1.2117 43.3408 0.5 42.4629 0.5C41.585 0.5 40.8733 1.2117 40.8733 2.08962V12.3659H32.5155V2.08962C32.5155 1.2117 31.8038 0.5 30.9259 0.5C30.048 0.5 29.3363 1.2117 29.3363 2.08962V12.3659H25.6638C24.7842 12.3659 24.0742 13.078 24.0742 13.9555C24.0742 14.833 24.7842 15.5451 25.6638 15.5451C33.991 15.5451 81.9451 15.5451 88.6095 15.5451C90.8243 15.5451 92.6238 17.3467 92.6238 19.5595V88.7811C92.6238 89.8896 92.183 90.9219 91.3797 91.687C90.744 92.2932 90.7184 93.3 91.3247 93.9337C91.6383 94.2621 92.056 94.4275 92.4756 94.4275C92.8698 94.4275 93.264 94.2813 93.5735 93.9888C95.0106 92.6175 95.8033 90.7671 95.8033 88.7811V79.1634H106.41C107.288 79.1634 108 78.4517 108 77.5738C108 76.6959 107.288 75.9842 106.41 75.9842H95.8033V67.6264H106.41C107.288 67.6264 108 66.9147 108 66.0368C108 65.1589 107.288 64.4472 106.41 64.4472H95.8033V56.0896H106.41C107.288 56.0896 108 55.3779 108 54.5C108 53.6221 107.288 52.9104 106.41 52.9104H95.8033V44.5528H106.41Z" fill="#434C54"/>
</g>
<defs>
<clipPath id="clip0_1638_299">
<rect width="108" height="108" fill="white" transform="translate(0 0.5)"/>
</clipPath>
</defs>
</svg>
