<svg width="96" height="97" viewBox="0 0 96 97" fill="none" xmlns="http://www.w3.org/2000/svg">
<g clip-path="url(#clip0_1638_330)">
<path d="M45.1875 25.8125H50.8125V53.9375H45.1875V25.8125Z" fill="#434C54"/>
<path d="M39.5625 61.4384H33.9375V45.5H25.5V39.875H39.5625V61.4384Z" fill="#434C54"/>
<path d="M62.0625 61.4384H56.4375V39.875H70.5V45.5H62.0625V61.4384Z" fill="#143441"/>
<path d="M48 96.5L67.6875 85.25V62.375H57.8438L48 73.625L42.375 84.4297L48 96.5Z" fill="#F2994A"/>
<path d="M48 96.5L28.3125 85.25V62.375L39.5623 63.1784L48 73.625V96.5Z" fill="#FDBF00"/>
<path d="M48 73.625L28.3125 62.375L48 51.125L67.6875 62.375L48 73.625Z" fill="#FEC872"/>
<path d="M33.9375 0.5V28.625H62.0625V0.5H33.9375Z" fill="#00C395"/>
<path d="M48 0.5H62.0625V28.625H48V0.5Z" fill="#00A97D"/>
<path d="M45.1875 11.75H50.8125V17.375H45.1875V11.75Z" fill="#F6FBFE"/>
<path d="M0 28.625V56.75H28.3125V28.625H0Z" fill="#00C395"/>
<path d="M14.25 28.625H28.3125V56.75H14.25V28.625Z" fill="#00A97D"/>
<path d="M11.4375 39.875H17.0625V45.5H11.4375V39.875Z" fill="#F6FBFE"/>
<path d="M67.6875 28.625V56.75H96V28.625H67.6875Z" fill="#00C395"/>
<path d="M81.75 28.625H96V56.75H81.75V28.625Z" fill="#00A97D"/>
<path d="M78.9375 39.875H84.5625V45.5H78.9375V39.875Z" fill="#F6FBFE"/>
</g>
<defs>
<clipPath id="clip0_1638_330">
<rect width="96" height="96" fill="white" transform="translate(0 0.5)"/>
</clipPath>
</defs>
</svg>
