<svg width="96" height="97" viewBox="0 0 96 97" fill="none" xmlns="http://www.w3.org/2000/svg">
<g clip-path="url(#clip0_1638_347)">
<path d="M67.8618 3.81034V26.9828H28.1377V3.81034C28.1431 1.98436 29.6221 0.505453 31.448 0.5H64.5515C66.3775 0.505453 67.8564 1.98436 67.8618 3.81034Z" fill="#BDC3C7"/>
<path d="M43.0347 7.12109H36.414C35.4998 7.12109 34.7588 7.86214 34.7588 8.77627V12.0866C34.7588 13.0007 35.4998 13.7418 36.414 13.7418H43.0347C43.9488 13.7418 44.6898 13.0007 44.6898 12.0866V8.77627C44.6898 7.86214 43.9488 7.12109 43.0347 7.12109Z" fill="#143441"/>
<path d="M59.5864 7.12109H52.9657C52.0516 7.12109 51.3105 7.86214 51.3105 8.77627V12.0866C51.3105 13.0007 52.0516 13.7418 52.9657 13.7418H59.5864C60.5005 13.7418 61.2416 13.0007 61.2416 12.0866V8.77627C61.2416 7.86214 60.5005 7.12109 59.5864 7.12109Z" fill="#143441"/>
<path d="M77.7932 26.9832V78.2935C77.7959 83.1231 75.8785 87.7556 72.4635 91.1707C69.0484 94.5857 64.4159 96.5031 59.5863 96.5004H36.4139C31.5844 96.5031 26.9518 94.5857 23.5368 91.1707C20.1218 87.7556 18.2044 83.1231 18.207 78.2935V26.9832C18.2125 25.1572 19.6914 23.6783 21.5174 23.6729H74.4829C76.3089 23.6783 77.7878 25.1572 77.7932 26.9832Z" fill="#00C395"/>
<path d="M24.828 55.1205C23.9139 55.1205 23.1729 54.3794 23.1729 53.4653V30.2929C23.1729 29.3787 23.9139 28.6377 24.828 28.6377C25.7422 28.6377 26.4832 29.3787 26.4832 30.2929V53.4653C26.4832 54.3794 25.7422 55.1205 24.828 55.1205Z" fill="#434C54"/>
<path d="M56.276 76.638H52.9657C52.0516 76.638 51.3105 75.897 51.3105 74.9828V71.6725C51.3105 70.7584 52.0516 70.0173 52.9657 70.0173H54.6209C55.535 70.0173 56.276 69.2763 56.276 68.3621V65.0518C56.276 64.1377 55.535 63.3966 54.6209 63.3966H52.9657C52.0516 63.3966 51.3105 62.6556 51.3105 61.7415V56.3787C57.7667 54.7117 61.9762 48.5041 61.136 41.8893C60.2958 35.2745 54.6681 30.3164 48.0002 30.3164C41.3322 30.3164 35.7045 35.2745 34.8643 41.8893C34.0241 48.5041 38.2336 54.7117 44.6898 56.3787V86.569C44.6957 87.4966 45.0886 88.3796 45.7737 89.005C46.4588 89.6303 47.3738 89.9413 48.2981 89.8628C50.044 89.6462 51.3442 88.1459 51.3105 86.387V84.9139C51.3105 83.9997 52.0516 83.2587 52.9657 83.2587H56.276C57.1902 83.2587 57.9312 82.5176 57.9312 81.6035V78.2932C57.9312 77.3791 57.1902 76.638 56.276 76.638ZM48.0002 50.1718C44.3391 50.1764 41.3675 47.2122 41.3629 43.5511C41.3584 39.89 44.3225 36.9185 47.9836 36.9139C51.6447 36.9093 54.6163 39.8735 54.6209 43.5346C54.6236 47.1949 51.6605 50.1654 48.0002 50.1718Z" fill="#FEC872"/>
<path d="M24.828 61.741C25.7422 61.741 26.4832 61 26.4832 60.0858C26.4832 59.1717 25.7422 58.4307 24.828 58.4307C23.9139 58.4307 23.1729 59.1717 23.1729 60.0858C23.1729 61 23.9139 61.741 24.828 61.741Z" fill="#434C54"/>
</g>
<defs>
<clipPath id="clip0_1638_347">
<rect width="96" height="96" fill="white" transform="translate(0 0.5)"/>
</clipPath>
</defs>
</svg>
