<svg width="216" height="126" viewBox="0 0 216 126" fill="none" xmlns="http://www.w3.org/2000/svg">
<path d="M215.875 106.562C215.875 107.867 215.55 108.846 214.573 109.825C213.596 110.805 212.619 111.131 211.317 111.131H196.014C194.711 111.131 193.734 110.805 192.758 109.825C191.781 108.846 191.455 107.867 191.455 106.562V91.5473H196.665V106.235H210.015V87.9571L199.595 80.1235V78.818L210.015 70.9845V55.644H196.99V69.0261H191.781V55.3176C191.781 54.0121 192.106 53.0329 193.083 52.0537C194.06 51.0745 195.037 50.748 196.339 50.748H211.317C212.619 50.748 213.596 51.0745 214.573 52.0537C215.55 53.0329 215.875 54.0121 215.875 55.3176V69.679C215.875 71.6373 215.224 72.9429 213.596 74.2485L206.433 79.1444L213.596 84.0403C215.224 85.0195 215.875 86.6514 215.875 88.6098V106.562Z" fill="#34E491"/>
<path d="M187.873 110.804V51.0742H174.198C170.942 51.0742 168.337 52.0534 166.383 54.0117C164.43 55.9701 163.453 58.5813 163.453 61.8453V79.1442V93.8319V110.804H187.873ZM168.663 106.235V62.498C168.663 60.5397 169.314 58.9077 170.616 57.6021C171.919 56.2965 173.547 55.6437 175.501 55.6437H182.989V106.235H168.663Z" fill="#34E491"/>
<path d="M159.22 106.561C159.22 107.867 158.895 108.846 157.918 109.825C156.941 110.804 155.964 111.131 154.662 111.131H140.01C138.707 111.131 137.73 110.804 136.754 109.825C135.777 108.846 135.451 107.867 135.451 106.561V55.6437C135.451 54.3381 135.777 53.359 136.754 52.3798C137.73 51.4006 138.707 51.0742 140.01 51.0742H154.987C156.29 51.0742 157.267 51.4006 158.243 52.3798C159.22 53.359 159.546 54.3381 159.546 55.6437V69.3523H154.336V55.9701H140.986V106.561H154.336V91.8735H159.22V106.561Z" fill="#34E491"/>
<path d="M120.799 106.562C120.799 109.499 119.172 111.131 116.241 111.131H104.519C101.589 111.131 99.9609 109.499 99.9609 106.562V78.1653C99.9609 75.2278 101.589 73.5957 104.519 73.5957H116.241C119.172 73.5957 120.799 75.2278 120.799 78.1653V85.3459H115.915V78.1653H105.496V106.562H115.915V98.4017H120.799V106.562Z" fill="#34E491"/>
<path d="M98.3323 73.5957L89.541 110.478L85.9594 125.166H80.7496L84.6569 110.478L75.54 73.5957H80.7496L86.9362 102.971L93.4483 73.5957H98.3323Z" fill="#34E491"/>
<path d="M73.5865 102.971C73.5865 105.255 72.9354 107.214 71.3074 108.846C69.6794 110.478 67.7256 111.131 65.4464 111.131H52.0967C52.0967 99.7067 52.0967 88.9357 52.0967 77.5119C52.0967 75.5536 52.0967 74.248 52.7479 72.2896L59.5855 51.4004H64.7953L57.3063 74.9008C59.2599 74.5744 61.2137 74.248 63.1673 74.248C65.7721 73.9216 67.7257 73.5952 69.0281 73.5952C71.9586 73.5952 73.5865 74.9008 73.5865 77.8384V102.971ZM68.3769 102.318V78.4911L57.3063 78.8175V106.561H64.4696C67.0744 106.561 68.3769 104.929 68.3769 102.318Z" fill="#34E491"/>
<path d="M48.5154 106.562C48.5154 109.499 46.8875 110.805 43.957 110.805H31.5839C28.6535 110.805 27.0254 109.173 27.0254 106.235V77.839C27.0254 74.9015 28.6535 73.2695 31.5839 73.2695H43.6313C46.5618 73.2695 48.1897 74.9015 48.1897 77.839V91.2212L46.5616 93.1795H32.5607V106.562H43.6313V99.7074H48.5154V106.562ZM43.3056 89.2628V78.1654H32.5607V89.2628H43.3056Z" fill="#34E491"/>
<path d="M23.7691 82.7343C23.7691 84.0398 23.4436 85.019 22.4668 85.9982C21.4899 86.9774 20.5131 87.3038 19.2107 87.3038H5.20959V111.131H0V51.4004H19.2107C20.5131 51.4004 21.4899 51.7268 22.4668 52.7059C23.4436 53.6851 23.7691 54.6643 23.7691 55.9699V82.7343ZM18.2337 82.4079V55.6435H5.20959V82.4079H18.2337Z" fill="#34E491"/>
<path d="M187.874 117.659V106.235H167.686C164.43 106.235 161.825 107.215 159.872 109.173C157.918 111.131 156.941 113.742 156.941 117.006V117.333H162.151C162.151 115.374 162.802 113.743 164.105 112.437C165.407 111.131 167.035 110.479 168.989 110.479H182.99V117.006H187.874V117.659Z" fill="#34E491"/>
<path fill-rule="evenodd" clip-rule="evenodd" d="M125.683 94.4848H129.264L130.567 92.8528V89.5889H125.683V94.4848Z" fill="#34E491"/>
<path fill-rule="evenodd" clip-rule="evenodd" d="M116.566 43.8939C106.147 39.9771 97.6814 31.1645 95.0766 20.3935C93.7741 21.0462 92.1462 21.699 90.8438 22.3518C94.0998 34.4284 105.496 45.5258 117.218 49.4425C130.242 38.9979 135.777 24.6366 135.451 7.66409C133.823 6.68491 132.195 5.70575 130.242 4.72656C132.521 19.0879 126.986 34.4284 116.566 43.8939Z" fill="#07B760"/>
<path fill-rule="evenodd" clip-rule="evenodd" d="M85.9598 21.0463C94.7511 14.192 106.473 11.2545 116.892 14.5184C117.218 12.8865 117.218 11.2544 117.218 9.94884C104.194 6.3585 90.5181 10.2753 80.75 19.4144C83.3548 36.3869 93.7741 48.137 107.775 55.9705C109.729 54.9913 111.357 54.0121 113.31 52.7065C99.3094 48.137 89.5414 35.0813 85.9598 21.0463Z" fill="#8EFDC9"/>
<path fill-rule="evenodd" clip-rule="evenodd" d="M111.356 33.0601C112.659 34.0393 113.961 34.6921 115.264 35.6713C123.404 27.185 127.311 15.1085 125.683 3.35828C110.054 -2.51681 95.076 -0.558448 80.4238 8.2542C80.4238 10.2126 80.4238 12.4973 80.4238 14.4557C91.1688 4.66384 107.449 2.05271 121.124 6.62223C122.752 13.8029 119.171 25.553 111.356 33.0601Z" fill="#72F975"/>
</svg>
