<svg width="56" height="56" viewBox="0 0 56 56" fill="none" xmlns="http://www.w3.org/2000/svg">
<path fill-rule="evenodd" clip-rule="evenodd" d="M36.5663 43.8939C26.147 39.9772 17.6814 31.1645 15.0766 20.3935C13.7741 21.0462 12.1462 21.699 10.8438 22.3518C14.0998 34.4284 25.4959 45.5258 37.2176 49.4425C50.2418 38.9979 55.7769 24.6366 55.4513 7.66409C53.8233 6.68491 52.1954 5.70575 50.2418 4.72656C52.521 19.0879 46.9857 34.4284 36.5663 43.8939Z" fill="#07B760"/>
<path fill-rule="evenodd" clip-rule="evenodd" d="M5.95978 21.0463C14.7511 14.192 26.4728 11.2545 36.8922 14.5184C37.2178 12.8865 37.2177 11.2544 37.2177 9.94884C24.1935 6.3585 10.5181 10.2753 0.75 19.4144C3.35483 36.3869 13.7741 48.137 27.7751 55.9705C29.7287 54.9913 31.3568 54.0121 33.3104 52.7065C19.3094 48.137 9.54143 35.0813 5.95978 21.0463Z" fill="#8EFDC9"/>
<path fill-rule="evenodd" clip-rule="evenodd" d="M31.3562 33.0601C32.6586 34.0393 33.9611 34.6921 35.2635 35.6713C43.4036 27.185 47.3107 15.1085 45.6827 3.35828C30.0537 -2.51681 15.076 -0.558448 0.423828 8.2542C0.423828 10.2126 0.423828 12.4973 0.423828 14.4557C11.1688 4.66384 27.449 2.05271 41.1243 6.62223C42.7524 13.8029 39.1707 25.553 31.3562 33.0601Z" fill="#72F975"/>
</svg>
